<mxfile host="app.diagrams.net" agent="Mozilla/5.0 (Windows NT 10.0; Win64; x64; rv:127.0) Gecko/20100101 Firefox/127.0" version="28.1.2">
  <diagram name="Page-1" id="TE5itIujn_djgEUXYbGV">
    <mxGraphModel dx="983" dy="534" grid="1" gridSize="10" guides="1" tooltips="1" connect="1" arrows="1" fold="1" page="1" pageScale="1" pageWidth="850" pageHeight="1100" math="0" shadow="0">
      <root>
        <mxCell id="0" />
        <mxCell id="1" parent="0" />
        <mxCell id="Y9K9y5vVh_ykq4faUqyZ-1" value="&lt;div&gt;Pedido&lt;/div&gt;" style="whiteSpace=wrap;html=1;align=center;fillColor=#dae8fc;strokeColor=#6c8ebf;" vertex="1" parent="1">
          <mxGeometry x="200" y="400" width="100" height="40" as="geometry" />
        </mxCell>
        <mxCell id="Y9K9y5vVh_ykq4faUqyZ-2" value="Produto" style="whiteSpace=wrap;html=1;align=center;fillColor=#dae8fc;strokeColor=#6c8ebf;" vertex="1" parent="1">
          <mxGeometry x="220" y="140" width="100" height="40" as="geometry" />
        </mxCell>
        <mxCell id="Y9K9y5vVh_ykq4faUqyZ-3" value="&lt;div&gt;Cliente&lt;/div&gt;" style="whiteSpace=wrap;html=1;align=center;fillColor=#dae8fc;strokeColor=#6c8ebf;" vertex="1" parent="1">
          <mxGeometry x="640" y="160" width="100" height="40" as="geometry" />
        </mxCell>
        <mxCell id="Y9K9y5vVh_ykq4faUqyZ-10" style="rounded=0;orthogonalLoop=1;jettySize=auto;html=1;exitX=1;exitY=1;exitDx=0;exitDy=0;entryX=0;entryY=0;entryDx=0;entryDy=0;endArrow=none;endFill=0;" edge="1" parent="1" source="Y9K9y5vVh_ykq4faUqyZ-4" target="Y9K9y5vVh_ykq4faUqyZ-2">
          <mxGeometry relative="1" as="geometry" />
        </mxCell>
        <mxCell id="Y9K9y5vVh_ykq4faUqyZ-4" value="ID" style="ellipse;whiteSpace=wrap;html=1;fontStyle=4" vertex="1" parent="1">
          <mxGeometry x="110" y="70" width="80" height="40" as="geometry" />
        </mxCell>
        <mxCell id="Y9K9y5vVh_ykq4faUqyZ-6" value="&lt;div&gt;Nome do Produto&lt;/div&gt;" style="ellipse;whiteSpace=wrap;html=1;" vertex="1" parent="1">
          <mxGeometry x="210" y="50" width="100" height="40" as="geometry" />
        </mxCell>
        <mxCell id="Y9K9y5vVh_ykq4faUqyZ-8" value="Qtd em estoque" style="ellipse;whiteSpace=wrap;html=1;dashed=1;" vertex="1" parent="1">
          <mxGeometry x="330" y="70" width="100" height="40" as="geometry" />
        </mxCell>
        <mxCell id="Y9K9y5vVh_ykq4faUqyZ-13" style="edgeStyle=none;shape=connector;rounded=0;orthogonalLoop=1;jettySize=auto;html=1;exitX=0;exitY=1;exitDx=0;exitDy=0;entryX=1;entryY=0.75;entryDx=0;entryDy=0;strokeColor=default;align=center;verticalAlign=middle;fontFamily=Helvetica;fontSize=11;fontColor=default;labelBackgroundColor=default;endArrow=none;endFill=0;" edge="1" parent="1" source="Y9K9y5vVh_ykq4faUqyZ-9" target="Y9K9y5vVh_ykq4faUqyZ-2">
          <mxGeometry relative="1" as="geometry" />
        </mxCell>
        <mxCell id="Y9K9y5vVh_ykq4faUqyZ-9" value="Preço" style="ellipse;whiteSpace=wrap;html=1;dashed=1;" vertex="1" parent="1">
          <mxGeometry x="350" y="130" width="100" height="40" as="geometry" />
        </mxCell>
        <mxCell id="Y9K9y5vVh_ykq4faUqyZ-11" style="edgeStyle=none;shape=connector;rounded=0;orthogonalLoop=1;jettySize=auto;html=1;exitX=0.5;exitY=1;exitDx=0;exitDy=0;entryX=0.39;entryY=-0.05;entryDx=0;entryDy=0;entryPerimeter=0;strokeColor=default;align=center;verticalAlign=middle;fontFamily=Helvetica;fontSize=11;fontColor=default;labelBackgroundColor=default;endArrow=none;endFill=0;" edge="1" parent="1" source="Y9K9y5vVh_ykq4faUqyZ-6" target="Y9K9y5vVh_ykq4faUqyZ-2">
          <mxGeometry relative="1" as="geometry" />
        </mxCell>
        <mxCell id="Y9K9y5vVh_ykq4faUqyZ-12" style="edgeStyle=none;shape=connector;rounded=0;orthogonalLoop=1;jettySize=auto;html=1;exitX=0;exitY=1;exitDx=0;exitDy=0;entryX=0.9;entryY=0;entryDx=0;entryDy=0;entryPerimeter=0;strokeColor=default;align=center;verticalAlign=middle;fontFamily=Helvetica;fontSize=11;fontColor=default;labelBackgroundColor=default;endArrow=none;endFill=0;" edge="1" parent="1" source="Y9K9y5vVh_ykq4faUqyZ-8" target="Y9K9y5vVh_ykq4faUqyZ-2">
          <mxGeometry relative="1" as="geometry" />
        </mxCell>
        <mxCell id="Y9K9y5vVh_ykq4faUqyZ-72" style="edgeStyle=none;shape=connector;rounded=0;orthogonalLoop=1;jettySize=auto;html=1;exitX=0;exitY=0;exitDx=0;exitDy=0;entryX=0.75;entryY=1;entryDx=0;entryDy=0;strokeColor=default;align=center;verticalAlign=middle;fontFamily=Helvetica;fontSize=11;fontColor=default;labelBackgroundColor=default;endArrow=none;endFill=0;" edge="1" parent="1" source="Y9K9y5vVh_ykq4faUqyZ-14" target="Y9K9y5vVh_ykq4faUqyZ-2">
          <mxGeometry relative="1" as="geometry" />
        </mxCell>
        <mxCell id="Y9K9y5vVh_ykq4faUqyZ-14" value="Descrição" style="ellipse;whiteSpace=wrap;html=1;" vertex="1" parent="1">
          <mxGeometry x="300" y="210" width="100" height="40" as="geometry" />
        </mxCell>
        <mxCell id="Y9K9y5vVh_ykq4faUqyZ-25" style="edgeStyle=none;shape=connector;rounded=0;orthogonalLoop=1;jettySize=auto;html=1;exitX=1;exitY=1;exitDx=0;exitDy=0;entryX=0;entryY=0;entryDx=0;entryDy=0;strokeColor=default;align=center;verticalAlign=middle;fontFamily=Helvetica;fontSize=11;fontColor=default;labelBackgroundColor=default;endArrow=none;endFill=0;" edge="1" parent="1" source="Y9K9y5vVh_ykq4faUqyZ-16" target="Y9K9y5vVh_ykq4faUqyZ-3">
          <mxGeometry relative="1" as="geometry" />
        </mxCell>
        <mxCell id="Y9K9y5vVh_ykq4faUqyZ-16" value="Nome" style="ellipse;whiteSpace=wrap;html=1;" vertex="1" parent="1">
          <mxGeometry x="520" y="120" width="75" height="30" as="geometry" />
        </mxCell>
        <mxCell id="Y9K9y5vVh_ykq4faUqyZ-26" style="edgeStyle=none;shape=connector;rounded=0;orthogonalLoop=1;jettySize=auto;html=1;exitX=0.5;exitY=1;exitDx=0;exitDy=0;strokeColor=default;align=center;verticalAlign=middle;fontFamily=Helvetica;fontSize=11;fontColor=default;labelBackgroundColor=default;endArrow=none;endFill=0;" edge="1" parent="1" source="Y9K9y5vVh_ykq4faUqyZ-17" target="Y9K9y5vVh_ykq4faUqyZ-3">
          <mxGeometry relative="1" as="geometry" />
        </mxCell>
        <mxCell id="Y9K9y5vVh_ykq4faUqyZ-17" value="CPF" style="ellipse;whiteSpace=wrap;html=1;fontStyle=4" vertex="1" parent="1">
          <mxGeometry x="595" y="80" width="100" height="40" as="geometry" />
        </mxCell>
        <mxCell id="Y9K9y5vVh_ykq4faUqyZ-27" style="edgeStyle=none;shape=connector;rounded=0;orthogonalLoop=1;jettySize=auto;html=1;exitX=0;exitY=1;exitDx=0;exitDy=0;entryX=0.75;entryY=0;entryDx=0;entryDy=0;strokeColor=default;align=center;verticalAlign=middle;fontFamily=Helvetica;fontSize=11;fontColor=default;labelBackgroundColor=default;endArrow=none;endFill=0;" edge="1" parent="1" source="Y9K9y5vVh_ykq4faUqyZ-19" target="Y9K9y5vVh_ykq4faUqyZ-3">
          <mxGeometry relative="1" as="geometry" />
        </mxCell>
        <mxCell id="Y9K9y5vVh_ykq4faUqyZ-19" value="Meio de pagamento cadastrado" style="ellipse;whiteSpace=wrap;html=1;fontStyle=0" vertex="1" parent="1">
          <mxGeometry x="720" y="80" width="100" height="40" as="geometry" />
        </mxCell>
        <mxCell id="Y9K9y5vVh_ykq4faUqyZ-28" style="edgeStyle=none;shape=connector;rounded=0;orthogonalLoop=1;jettySize=auto;html=1;exitX=0;exitY=0.5;exitDx=0;exitDy=0;entryX=1;entryY=0.25;entryDx=0;entryDy=0;strokeColor=default;align=center;verticalAlign=middle;fontFamily=Helvetica;fontSize=11;fontColor=default;labelBackgroundColor=default;endArrow=none;endFill=0;" edge="1" parent="1" source="Y9K9y5vVh_ykq4faUqyZ-20" target="Y9K9y5vVh_ykq4faUqyZ-3">
          <mxGeometry relative="1" as="geometry" />
        </mxCell>
        <mxCell id="Y9K9y5vVh_ykq4faUqyZ-20" value="Endereço" style="ellipse;whiteSpace=wrap;html=1;fontStyle=0" vertex="1" parent="1">
          <mxGeometry x="790" y="150" width="100" height="40" as="geometry" />
        </mxCell>
        <mxCell id="Y9K9y5vVh_ykq4faUqyZ-21" value="Rua" style="ellipse;whiteSpace=wrap;html=1;fontStyle=0" vertex="1" parent="1">
          <mxGeometry x="870" y="98" width="80" height="32" as="geometry" />
        </mxCell>
        <mxCell id="Y9K9y5vVh_ykq4faUqyZ-30" style="edgeStyle=none;shape=connector;rounded=0;orthogonalLoop=1;jettySize=auto;html=1;exitX=0;exitY=0.5;exitDx=0;exitDy=0;entryX=1;entryY=0.5;entryDx=0;entryDy=0;strokeColor=default;align=center;verticalAlign=middle;fontFamily=Helvetica;fontSize=11;fontColor=default;labelBackgroundColor=default;endArrow=none;endFill=0;" edge="1" parent="1" source="Y9K9y5vVh_ykq4faUqyZ-22" target="Y9K9y5vVh_ykq4faUqyZ-20">
          <mxGeometry relative="1" as="geometry" />
        </mxCell>
        <mxCell id="Y9K9y5vVh_ykq4faUqyZ-22" value="CEP" style="ellipse;whiteSpace=wrap;html=1;fontStyle=0" vertex="1" parent="1">
          <mxGeometry x="920" y="140" width="80" height="32" as="geometry" />
        </mxCell>
        <mxCell id="Y9K9y5vVh_ykq4faUqyZ-31" style="edgeStyle=none;shape=connector;rounded=0;orthogonalLoop=1;jettySize=auto;html=1;exitX=0;exitY=0.5;exitDx=0;exitDy=0;entryX=1;entryY=1;entryDx=0;entryDy=0;strokeColor=default;align=center;verticalAlign=middle;fontFamily=Helvetica;fontSize=11;fontColor=default;labelBackgroundColor=default;endArrow=none;endFill=0;" edge="1" parent="1" source="Y9K9y5vVh_ykq4faUqyZ-23" target="Y9K9y5vVh_ykq4faUqyZ-20">
          <mxGeometry relative="1" as="geometry" />
        </mxCell>
        <mxCell id="Y9K9y5vVh_ykq4faUqyZ-23" value="&lt;div&gt;Bairro&lt;/div&gt;" style="ellipse;whiteSpace=wrap;html=1;fontStyle=0" vertex="1" parent="1">
          <mxGeometry x="930" y="190" width="80" height="32" as="geometry" />
        </mxCell>
        <mxCell id="Y9K9y5vVh_ykq4faUqyZ-24" value="Complemento" style="ellipse;whiteSpace=wrap;html=1;fontStyle=0" vertex="1" parent="1">
          <mxGeometry x="840" y="222" width="80" height="32" as="geometry" />
        </mxCell>
        <mxCell id="Y9K9y5vVh_ykq4faUqyZ-29" style="edgeStyle=none;shape=connector;rounded=0;orthogonalLoop=1;jettySize=auto;html=1;exitX=1;exitY=0;exitDx=0;exitDy=0;entryX=0.263;entryY=0.969;entryDx=0;entryDy=0;entryPerimeter=0;strokeColor=default;align=center;verticalAlign=middle;fontFamily=Helvetica;fontSize=11;fontColor=default;labelBackgroundColor=default;endArrow=none;endFill=0;" edge="1" parent="1" source="Y9K9y5vVh_ykq4faUqyZ-20" target="Y9K9y5vVh_ykq4faUqyZ-21">
          <mxGeometry relative="1" as="geometry" />
        </mxCell>
        <mxCell id="Y9K9y5vVh_ykq4faUqyZ-32" style="edgeStyle=none;shape=connector;rounded=0;orthogonalLoop=1;jettySize=auto;html=1;exitX=0.5;exitY=0;exitDx=0;exitDy=0;entryX=0.73;entryY=1.025;entryDx=0;entryDy=0;entryPerimeter=0;strokeColor=default;align=center;verticalAlign=middle;fontFamily=Helvetica;fontSize=11;fontColor=default;labelBackgroundColor=default;endArrow=none;endFill=0;" edge="1" parent="1" source="Y9K9y5vVh_ykq4faUqyZ-24" target="Y9K9y5vVh_ykq4faUqyZ-20">
          <mxGeometry relative="1" as="geometry" />
        </mxCell>
        <mxCell id="Y9K9y5vVh_ykq4faUqyZ-33" value="ID do pedido" style="ellipse;whiteSpace=wrap;html=1;fontStyle=4" vertex="1" parent="1">
          <mxGeometry x="150" y="330" width="80" height="32" as="geometry" />
        </mxCell>
        <mxCell id="Y9K9y5vVh_ykq4faUqyZ-34" value="ID do Produto" style="ellipse;whiteSpace=wrap;html=1;fontStyle=4" vertex="1" parent="1">
          <mxGeometry x="250" y="330" width="80" height="32" as="geometry" />
        </mxCell>
        <mxCell id="Y9K9y5vVh_ykq4faUqyZ-43" style="edgeStyle=none;shape=connector;rounded=0;orthogonalLoop=1;jettySize=auto;html=1;exitX=0;exitY=0.5;exitDx=0;exitDy=0;entryX=1;entryY=0.25;entryDx=0;entryDy=0;strokeColor=default;align=center;verticalAlign=middle;fontFamily=Helvetica;fontSize=11;fontColor=default;labelBackgroundColor=default;endArrow=none;endFill=0;" edge="1" parent="1" source="Y9K9y5vVh_ykq4faUqyZ-35" target="Y9K9y5vVh_ykq4faUqyZ-1">
          <mxGeometry relative="1" as="geometry" />
        </mxCell>
        <mxCell id="Y9K9y5vVh_ykq4faUqyZ-35" value="Tipo de frete" style="ellipse;whiteSpace=wrap;html=1;fontStyle=0" vertex="1" parent="1">
          <mxGeometry x="330" y="368" width="80" height="32" as="geometry" />
        </mxCell>
        <mxCell id="Y9K9y5vVh_ykq4faUqyZ-42" style="edgeStyle=none;shape=connector;rounded=0;orthogonalLoop=1;jettySize=auto;html=1;exitX=0;exitY=0.5;exitDx=0;exitDy=0;strokeColor=default;align=center;verticalAlign=middle;fontFamily=Helvetica;fontSize=11;fontColor=default;labelBackgroundColor=default;endArrow=none;endFill=0;" edge="1" parent="1" source="Y9K9y5vVh_ykq4faUqyZ-37" target="Y9K9y5vVh_ykq4faUqyZ-1">
          <mxGeometry relative="1" as="geometry" />
        </mxCell>
        <mxCell id="Y9K9y5vVh_ykq4faUqyZ-37" value="Observaçôes" style="ellipse;whiteSpace=wrap;html=1;fontStyle=0" vertex="1" parent="1">
          <mxGeometry x="340" y="420" width="80" height="32" as="geometry" />
        </mxCell>
        <mxCell id="Y9K9y5vVh_ykq4faUqyZ-39" style="edgeStyle=none;shape=connector;rounded=0;orthogonalLoop=1;jettySize=auto;html=1;exitX=0.689;exitY=0.1;exitDx=0;exitDy=0;entryX=0;entryY=1;entryDx=0;entryDy=0;strokeColor=default;align=center;verticalAlign=middle;fontFamily=Helvetica;fontSize=11;fontColor=default;labelBackgroundColor=default;endArrow=none;endFill=0;exitPerimeter=0;" edge="1" parent="1" source="Y9K9y5vVh_ykq4faUqyZ-75" target="Y9K9y5vVh_ykq4faUqyZ-3">
          <mxGeometry relative="1" as="geometry">
            <mxPoint x="619.1814881656137" y="227.05694193789475" as="sourcePoint" />
          </mxGeometry>
        </mxCell>
        <mxCell id="Y9K9y5vVh_ykq4faUqyZ-41" style="edgeStyle=none;shape=connector;rounded=0;orthogonalLoop=1;jettySize=auto;html=1;exitX=0;exitY=0;exitDx=0;exitDy=0;entryX=1;entryY=1;entryDx=0;entryDy=0;strokeColor=default;align=center;verticalAlign=middle;fontFamily=Helvetica;fontSize=11;fontColor=default;labelBackgroundColor=default;endArrow=none;endFill=0;" edge="1" parent="1" source="Y9K9y5vVh_ykq4faUqyZ-40" target="Y9K9y5vVh_ykq4faUqyZ-1">
          <mxGeometry relative="1" as="geometry" />
        </mxCell>
        <mxCell id="Y9K9y5vVh_ykq4faUqyZ-40" value="Status" style="ellipse;whiteSpace=wrap;html=1;fontStyle=0" vertex="1" parent="1">
          <mxGeometry x="320" y="480" width="80" height="32" as="geometry" />
        </mxCell>
        <mxCell id="Y9K9y5vVh_ykq4faUqyZ-44" style="edgeStyle=none;shape=connector;rounded=0;orthogonalLoop=1;jettySize=auto;html=1;exitX=0.5;exitY=1;exitDx=0;exitDy=0;entryX=0.831;entryY=-0.058;entryDx=0;entryDy=0;entryPerimeter=0;strokeColor=default;align=center;verticalAlign=middle;fontFamily=Helvetica;fontSize=11;fontColor=default;labelBackgroundColor=default;endArrow=none;endFill=0;" edge="1" parent="1" source="Y9K9y5vVh_ykq4faUqyZ-34" target="Y9K9y5vVh_ykq4faUqyZ-1">
          <mxGeometry relative="1" as="geometry" />
        </mxCell>
        <mxCell id="Y9K9y5vVh_ykq4faUqyZ-45" style="edgeStyle=none;shape=connector;rounded=0;orthogonalLoop=1;jettySize=auto;html=1;exitX=1;exitY=1;exitDx=0;exitDy=0;entryX=0.335;entryY=-0.014;entryDx=0;entryDy=0;entryPerimeter=0;strokeColor=default;align=center;verticalAlign=middle;fontFamily=Helvetica;fontSize=11;fontColor=default;labelBackgroundColor=default;endArrow=none;endFill=0;" edge="1" parent="1" source="Y9K9y5vVh_ykq4faUqyZ-33" target="Y9K9y5vVh_ykq4faUqyZ-1">
          <mxGeometry relative="1" as="geometry" />
        </mxCell>
        <mxCell id="Y9K9y5vVh_ykq4faUqyZ-54" style="edgeStyle=none;shape=connector;rounded=0;orthogonalLoop=1;jettySize=auto;html=1;exitX=0.5;exitY=0;exitDx=0;exitDy=0;entryX=0.5;entryY=1;entryDx=0;entryDy=0;strokeColor=default;align=center;verticalAlign=middle;fontFamily=Helvetica;fontSize=11;fontColor=default;labelBackgroundColor=default;endArrow=none;endFill=0;" edge="1" parent="1" source="Y9K9y5vVh_ykq4faUqyZ-46" target="Y9K9y5vVh_ykq4faUqyZ-1">
          <mxGeometry relative="1" as="geometry" />
        </mxCell>
        <mxCell id="Y9K9y5vVh_ykq4faUqyZ-46" value="Quantidade" style="ellipse;whiteSpace=wrap;html=1;fontStyle=0" vertex="1" parent="1">
          <mxGeometry x="210" y="490" width="80" height="32" as="geometry" />
        </mxCell>
        <mxCell id="Y9K9y5vVh_ykq4faUqyZ-51" style="edgeStyle=none;shape=connector;rounded=0;orthogonalLoop=1;jettySize=auto;html=1;exitX=1;exitY=0;exitDx=0;exitDy=0;entryX=0.25;entryY=1;entryDx=0;entryDy=0;strokeColor=default;align=center;verticalAlign=middle;fontFamily=Helvetica;fontSize=11;fontColor=default;labelBackgroundColor=default;endArrow=none;endFill=0;" edge="1" parent="1" source="Y9K9y5vVh_ykq4faUqyZ-49" target="Y9K9y5vVh_ykq4faUqyZ-1">
          <mxGeometry relative="1" as="geometry" />
        </mxCell>
        <mxCell id="Y9K9y5vVh_ykq4faUqyZ-49" value="Data" style="ellipse;whiteSpace=wrap;html=1;fontStyle=0" vertex="1" parent="1">
          <mxGeometry x="110" y="480" width="80" height="32" as="geometry" />
        </mxCell>
        <mxCell id="Y9K9y5vVh_ykq4faUqyZ-53" style="edgeStyle=none;shape=connector;rounded=0;orthogonalLoop=1;jettySize=auto;html=1;exitX=1;exitY=0.5;exitDx=0;exitDy=0;entryX=0;entryY=0.75;entryDx=0;entryDy=0;strokeColor=default;align=center;verticalAlign=middle;fontFamily=Helvetica;fontSize=11;fontColor=default;labelBackgroundColor=default;endArrow=none;endFill=0;" edge="1" parent="1" source="Y9K9y5vVh_ykq4faUqyZ-52" target="Y9K9y5vVh_ykq4faUqyZ-1">
          <mxGeometry relative="1" as="geometry" />
        </mxCell>
        <mxCell id="Y9K9y5vVh_ykq4faUqyZ-52" value="&lt;div&gt;Forma de pagamento&lt;/div&gt;" style="ellipse;whiteSpace=wrap;html=1;fontStyle=0" vertex="1" parent="1">
          <mxGeometry x="80" y="420" width="80" height="32" as="geometry" />
        </mxCell>
        <mxCell id="Y9K9y5vVh_ykq4faUqyZ-64" style="edgeStyle=none;shape=connector;rounded=0;orthogonalLoop=1;jettySize=auto;html=1;exitX=0.5;exitY=0;exitDx=0;exitDy=0;entryX=0.5;entryY=1;entryDx=0;entryDy=0;strokeColor=default;align=center;verticalAlign=middle;fontFamily=Helvetica;fontSize=11;fontColor=default;labelBackgroundColor=default;endArrow=none;endFill=0;" edge="1" parent="1" source="Y9K9y5vVh_ykq4faUqyZ-55" target="Y9K9y5vVh_ykq4faUqyZ-57">
          <mxGeometry relative="1" as="geometry" />
        </mxCell>
        <mxCell id="Y9K9y5vVh_ykq4faUqyZ-55" value="Estoque" style="shape=ext;margin=3;double=1;whiteSpace=wrap;html=1;align=center;fillColor=#dae8fc;strokeColor=#6c8ebf;" vertex="1" parent="1">
          <mxGeometry x="660" y="416" width="100" height="40" as="geometry" />
        </mxCell>
        <mxCell id="Y9K9y5vVh_ykq4faUqyZ-57" value="&lt;div&gt;Produtos&lt;/div&gt;" style="ellipse;shape=doubleEllipse;margin=3;whiteSpace=wrap;html=1;align=center;" vertex="1" parent="1">
          <mxGeometry x="660" y="350" width="90" height="35" as="geometry" />
        </mxCell>
        <mxCell id="Y9K9y5vVh_ykq4faUqyZ-65" style="edgeStyle=none;shape=connector;rounded=0;orthogonalLoop=1;jettySize=auto;html=1;exitX=0;exitY=1;exitDx=0;exitDy=0;entryX=1;entryY=0;entryDx=0;entryDy=0;strokeColor=default;align=center;verticalAlign=middle;fontFamily=Helvetica;fontSize=11;fontColor=default;labelBackgroundColor=default;endArrow=none;endFill=0;" edge="1" parent="1" source="Y9K9y5vVh_ykq4faUqyZ-58" target="Y9K9y5vVh_ykq4faUqyZ-55">
          <mxGeometry relative="1" as="geometry" />
        </mxCell>
        <mxCell id="Y9K9y5vVh_ykq4faUqyZ-58" value="Qtd em estoque" style="ellipse;whiteSpace=wrap;html=1;dashed=1;" vertex="1" parent="1">
          <mxGeometry x="770" y="376" width="85" height="34" as="geometry" />
        </mxCell>
        <mxCell id="Y9K9y5vVh_ykq4faUqyZ-66" style="edgeStyle=none;shape=connector;rounded=0;orthogonalLoop=1;jettySize=auto;html=1;exitX=0;exitY=0.5;exitDx=0;exitDy=0;entryX=1;entryY=0.5;entryDx=0;entryDy=0;strokeColor=default;align=center;verticalAlign=middle;fontFamily=Helvetica;fontSize=11;fontColor=default;labelBackgroundColor=default;endArrow=none;endFill=0;" edge="1" parent="1" source="Y9K9y5vVh_ykq4faUqyZ-60" target="Y9K9y5vVh_ykq4faUqyZ-55">
          <mxGeometry relative="1" as="geometry" />
        </mxCell>
        <mxCell id="Y9K9y5vVh_ykq4faUqyZ-60" value="ID do Produto" style="ellipse;whiteSpace=wrap;html=1;fontStyle=4" vertex="1" parent="1">
          <mxGeometry x="800" y="424" width="80" height="32" as="geometry" />
        </mxCell>
        <mxCell id="Y9K9y5vVh_ykq4faUqyZ-67" style="edgeStyle=none;shape=connector;rounded=0;orthogonalLoop=1;jettySize=auto;html=1;exitX=0;exitY=0;exitDx=0;exitDy=0;entryX=1;entryY=1;entryDx=0;entryDy=0;strokeColor=default;align=center;verticalAlign=middle;fontFamily=Helvetica;fontSize=11;fontColor=default;labelBackgroundColor=default;endArrow=none;endFill=0;" edge="1" parent="1" source="Y9K9y5vVh_ykq4faUqyZ-61" target="Y9K9y5vVh_ykq4faUqyZ-55">
          <mxGeometry relative="1" as="geometry" />
        </mxCell>
        <mxCell id="Y9K9y5vVh_ykq4faUqyZ-61" value="Data Hora" style="ellipse;whiteSpace=wrap;html=1;fontStyle=0" vertex="1" parent="1">
          <mxGeometry x="780" y="480" width="80" height="32" as="geometry" />
        </mxCell>
        <mxCell id="Y9K9y5vVh_ykq4faUqyZ-62" value="Qt unidades vendidas" style="ellipse;whiteSpace=wrap;html=1;fontStyle=0" vertex="1" parent="1">
          <mxGeometry x="680" y="490" width="80" height="32" as="geometry" />
        </mxCell>
        <mxCell id="Y9K9y5vVh_ykq4faUqyZ-69" style="edgeStyle=none;shape=connector;rounded=0;orthogonalLoop=1;jettySize=auto;html=1;exitX=1;exitY=0;exitDx=0;exitDy=0;entryX=0.25;entryY=1;entryDx=0;entryDy=0;strokeColor=default;align=center;verticalAlign=middle;fontFamily=Helvetica;fontSize=11;fontColor=default;labelBackgroundColor=default;endArrow=none;endFill=0;" edge="1" parent="1" source="Y9K9y5vVh_ykq4faUqyZ-63" target="Y9K9y5vVh_ykq4faUqyZ-55">
          <mxGeometry relative="1" as="geometry" />
        </mxCell>
        <mxCell id="Y9K9y5vVh_ykq4faUqyZ-63" value="Estoquista" style="ellipse;whiteSpace=wrap;html=1;fontStyle=0" vertex="1" parent="1">
          <mxGeometry x="590" y="480" width="80" height="32" as="geometry" />
        </mxCell>
        <mxCell id="Y9K9y5vVh_ykq4faUqyZ-68" style="edgeStyle=none;shape=connector;rounded=0;orthogonalLoop=1;jettySize=auto;html=1;exitX=0.5;exitY=0;exitDx=0;exitDy=0;entryX=0.6;entryY=1.1;entryDx=0;entryDy=0;entryPerimeter=0;strokeColor=default;align=center;verticalAlign=middle;fontFamily=Helvetica;fontSize=11;fontColor=default;labelBackgroundColor=default;endArrow=none;endFill=0;" edge="1" parent="1" source="Y9K9y5vVh_ykq4faUqyZ-62" target="Y9K9y5vVh_ykq4faUqyZ-55">
          <mxGeometry relative="1" as="geometry" />
        </mxCell>
        <mxCell id="Y9K9y5vVh_ykq4faUqyZ-71" style="edgeStyle=none;shape=connector;rounded=0;orthogonalLoop=1;jettySize=auto;html=1;exitX=0.5;exitY=0;exitDx=0;exitDy=0;entryX=0.25;entryY=1;entryDx=0;entryDy=0;strokeColor=default;align=center;verticalAlign=middle;fontFamily=Helvetica;fontSize=11;fontColor=default;labelBackgroundColor=default;endArrow=none;endFill=0;" edge="1" parent="1" source="Y9K9y5vVh_ykq4faUqyZ-70" target="Y9K9y5vVh_ykq4faUqyZ-2">
          <mxGeometry relative="1" as="geometry" />
        </mxCell>
        <mxCell id="Y9K9y5vVh_ykq4faUqyZ-70" value="Categoria" style="ellipse;whiteSpace=wrap;html=1;fontStyle=0" vertex="1" parent="1">
          <mxGeometry x="190" y="218" width="80" height="32" as="geometry" />
        </mxCell>
        <mxCell id="Y9K9y5vVh_ykq4faUqyZ-75" value="telefone" style="ellipse;shape=doubleEllipse;margin=3;whiteSpace=wrap;html=1;align=center;" vertex="1" parent="1">
          <mxGeometry x="560" y="210" width="90" height="35" as="geometry" />
        </mxCell>
        <mxCell id="Y9K9y5vVh_ykq4faUqyZ-79" style="edgeStyle=none;shape=connector;rounded=0;orthogonalLoop=1;jettySize=auto;html=1;exitX=1;exitY=0;exitDx=0;exitDy=0;entryX=0;entryY=1;entryDx=0;entryDy=0;strokeColor=default;align=center;verticalAlign=middle;fontFamily=Helvetica;fontSize=11;fontColor=default;labelBackgroundColor=default;endArrow=none;endFill=0;" edge="1" parent="1" source="Y9K9y5vVh_ykq4faUqyZ-77" target="Y9K9y5vVh_ykq4faUqyZ-75">
          <mxGeometry relative="1" as="geometry" />
        </mxCell>
        <mxCell id="Y9K9y5vVh_ykq4faUqyZ-77" value="Número" style="ellipse;whiteSpace=wrap;html=1;fontStyle=0" vertex="1" parent="1">
          <mxGeometry x="490" y="245" width="80" height="32" as="geometry" />
        </mxCell>
        <mxCell id="Y9K9y5vVh_ykq4faUqyZ-80" style="edgeStyle=none;shape=connector;rounded=0;orthogonalLoop=1;jettySize=auto;html=1;exitX=0;exitY=0;exitDx=0;exitDy=0;entryX=0.5;entryY=1;entryDx=0;entryDy=0;strokeColor=default;align=center;verticalAlign=middle;fontFamily=Helvetica;fontSize=11;fontColor=default;labelBackgroundColor=default;endArrow=none;endFill=0;" edge="1" parent="1" source="Y9K9y5vVh_ykq4faUqyZ-78" target="Y9K9y5vVh_ykq4faUqyZ-75">
          <mxGeometry relative="1" as="geometry" />
        </mxCell>
        <mxCell id="Y9K9y5vVh_ykq4faUqyZ-78" value="Tipo" style="ellipse;whiteSpace=wrap;html=1;fontStyle=0" vertex="1" parent="1">
          <mxGeometry x="600" y="254" width="80" height="32" as="geometry" />
        </mxCell>
      </root>
    </mxGraphModel>
  </diagram>
</mxfile>
